# Blender v2.69 (sub 0) OBJ File: 'moneda.blend'
# www.blender.org
mtllib moneda.mtl
v 0.000000 0.150000 -0.021981
v 0.000000 0.150000 -0.000019
v 0.014632 0.148559 -0.021981
v 0.014632 0.148559 -0.000019
v 0.028701 0.144291 -0.021981
v 0.028701 0.144291 -0.000019
v 0.041668 0.137360 -0.021981
v 0.041668 0.137360 -0.000019
v 0.053033 0.128033 -0.021981
v 0.053033 0.128033 -0.000019
v 0.062360 0.116668 -0.021981
v 0.062360 0.116668 -0.000019
v 0.069291 0.103701 -0.021981
v 0.069291 0.103701 -0.000019
v 0.073559 0.089632 -0.021981
v 0.073559 0.089632 -0.000019
v 0.075000 0.075000 -0.021981
v 0.075000 0.075000 -0.000019
v 0.073559 0.060368 -0.021981
v 0.073559 0.060368 -0.000019
v 0.069291 0.046299 -0.021981
v 0.069291 0.046299 -0.000019
v 0.062360 0.033332 -0.021981
v 0.062360 0.033332 -0.000019
v 0.053033 0.021967 -0.021981
v 0.053033 0.021967 -0.000019
v 0.041668 0.012640 -0.021981
v 0.041668 0.012640 -0.000019
v 0.028701 0.005709 -0.021981
v 0.028701 0.005709 -0.000019
v 0.014632 0.001441 -0.021981
v 0.014632 0.001441 -0.000019
v -0.000000 0.000000 -0.021981
v -0.000000 0.000000 -0.000019
v -0.014632 0.001441 -0.021981
v -0.014632 0.001441 -0.000019
v -0.028701 0.005709 -0.021981
v -0.028701 0.005709 -0.000019
v -0.041668 0.012640 -0.021981
v -0.041668 0.012640 -0.000019
v -0.053033 0.021967 -0.021981
v -0.053033 0.021967 -0.000019
v -0.062360 0.033332 -0.021981
v -0.062360 0.033332 -0.000019
v -0.069291 0.046299 -0.021981
v -0.069291 0.046299 -0.000019
v -0.073559 0.060368 -0.021981
v -0.073559 0.060368 -0.000019
v -0.075000 0.075000 -0.021981
v -0.075000 0.075000 -0.000019
v -0.073559 0.089632 -0.021981
v -0.073559 0.089632 -0.000019
v -0.069291 0.103701 -0.021981
v -0.069291 0.103701 -0.000019
v -0.062360 0.116668 -0.021981
v -0.062360 0.116668 -0.000019
v -0.053033 0.128033 -0.021981
v -0.053033 0.128033 -0.000019
v -0.041668 0.137360 -0.021981
v -0.041668 0.137360 -0.000019
v -0.028701 0.144291 -0.021981
v -0.028701 0.144291 -0.000019
v -0.014632 0.148559 -0.021981
v -0.014632 0.148559 -0.000019
vt 0.719662 0.563796
vt 0.719415 0.563796
vt 0.719415 0.559736
vt 0.719172 0.563796
vt 0.719172 0.559736
vt 0.718943 0.563796
vt 0.718943 0.559736
vt 0.718737 0.563796
vt 0.718737 0.559736
vt 0.718562 0.563796
vt 0.718562 0.559736
vt 0.711226 0.563023
vt 0.711353 0.563023
vt 0.711353 0.565529
vt 0.711494 0.563023
vt 0.711494 0.565529
vt 0.711644 0.563023
vt 0.711644 0.565529
vt 0.711797 0.563023
vt 0.711797 0.565529
vt 0.711947 0.563023
vt 0.711947 0.565529
vt 0.712088 0.563023
vt 0.712088 0.565529
vt 0.712215 0.563023
vt 0.712215 0.565529
vt 0.724957 0.565356
vt 0.725200 0.565356
vt 0.725200 0.570156
vt 0.725471 0.565356
vt 0.725471 0.570156
vt 0.725758 0.565356
vt 0.725758 0.570156
vt 0.726051 0.565356
vt 0.726051 0.570156
vt 0.726338 0.565356
vt 0.726338 0.570156
vt 0.726609 0.565356
vt 0.726609 0.570156
vt 0.726852 0.565356
vt 0.726852 0.570156
vt 0.727059 0.565356
vt 0.727059 0.570156
vt 0.716796 0.566115
vt 0.716563 0.566115
vt 0.716563 0.561522
vt 0.716304 0.566115
vt 0.716304 0.561522
vt 0.716029 0.566115
vt 0.716029 0.561522
vt 0.715749 0.566115
vt 0.715749 0.561522
vt 0.715474 0.566115
vt 0.715474 0.561522
vt 0.715216 0.566115
vt 0.715216 0.561522
vt 0.714983 0.566115
vt 0.714983 0.561522
vt 0.714784 0.566115
vt 0.714784 0.561522
vt 0.720515 0.563796
vt 0.720340 0.563796
vt 0.720340 0.559736
vt 0.720134 0.563796
vt 0.720134 0.559736
vt 0.171402 0.032363
vt 0.477304 0.324083
vt 0.022734 0.655408
vt 0.719905 0.563796
vt 0.719662 0.559736
vt 0.719905 0.559736
vt 0.708310 0.016072
vt 0.983729 0.406360
vt 0.514797 0.575297
vt 0.711226 0.565529
vt 0.724957 0.570156
vt 0.716796 0.561522
vt 0.720515 0.559736
vt 0.328636 0.947127
vt 0.282784 0.970658
vt 0.235673 0.975708
vt 0.189114 0.962082
vt 0.144895 0.930304
vt 0.104716 0.881597
vt 0.070120 0.817830
vt 0.042439 0.741455
vt 0.011764 0.562994
vt 0.009950 0.467765
vt 0.017361 0.373381
vt 0.033714 0.283468
vt 0.058379 0.201483
vt 0.090408 0.130576
vt 0.128572 0.073471
vt 0.217254 0.008833
vt 0.264365 0.003783
vt 0.310925 0.017409
vt 0.355144 0.049187
vt 0.395323 0.097895
vt 0.429918 0.161661
vt 0.457600 0.238036
vt 0.488275 0.416497
vt 0.490089 0.511726
vt 0.482677 0.606110
vt 0.466325 0.696023
vt 0.441660 0.778008
vt 0.409630 0.848915
vt 0.371466 0.906020
vt 0.790215 0.965584
vt 0.743687 0.972941
vt 0.697372 0.961770
vt 0.653052 0.932501
vt 0.612428 0.886259
vt 0.577064 0.824821
vt 0.548317 0.750548
vt 0.527292 0.666294
vt 0.511313 0.481053
vt 0.516973 0.387185
vt 0.531559 0.297301
vt 0.554512 0.214853
vt 0.584949 0.143011
vt 0.621701 0.084535
vt 0.663355 0.041673
vt 0.754839 0.008715
vt 0.801154 0.019886
vt 0.845474 0.049154
vt 0.886097 0.095397
vt 0.921462 0.156834
vt 0.950209 0.231108
vt 0.971234 0.315362
vt 0.987213 0.500603
vt 0.981553 0.594471
vt 0.966966 0.684356
vt 0.944013 0.766803
vt 0.913576 0.838645
vt 0.876824 0.897121
vt 0.835170 0.939983
vn 0.098017 0.995185 0.000000
vn 0.290285 0.956940 0.000000
vn 0.471397 0.881921 0.000000
vn 0.634394 0.773010 0.000000
vn 0.773011 0.634393 0.000000
vn 0.881921 0.471397 0.000000
vn 0.956941 0.290284 0.000000
vn 0.995185 0.098018 0.000000
vn 0.995185 -0.098016 -0.000000
vn 0.956940 -0.290285 0.000000
vn 0.881922 -0.471395 0.000000
vn 0.773010 -0.634394 0.000000
vn 0.634393 -0.773010 0.000000
vn 0.471397 -0.881921 0.000000
vn 0.290285 -0.956940 0.000000
vn 0.098017 -0.995185 0.000000
vn -0.098018 -0.995185 0.000000
vn -0.290285 -0.956940 0.000000
vn -0.471397 -0.881921 0.000000
vn -0.634393 -0.773010 0.000000
vn -0.773011 -0.634393 0.000000
vn -0.881922 -0.471396 0.000000
vn -0.956941 -0.290283 0.000000
vn -0.995185 -0.098016 0.000000
vn -0.995184 0.098019 0.000000
vn -0.956940 0.290285 0.000000
vn -0.881921 0.471398 0.000000
vn -0.773009 0.634395 0.000000
vn -0.634392 0.773011 0.000000
vn -0.471396 0.881922 0.000000
vn -0.000000 -0.000000 1.000000
vn -0.098017 0.995185 0.000000
vn -0.290283 0.956941 0.000000
vn 0.000000 0.000000 -1.000000
vn 0.471396 0.881921 0.000000
vn 0.773010 0.634394 0.000000
vn 0.881921 0.471396 0.000000
vn 0.956940 0.290285 0.000000
vn 0.881921 -0.471398 0.000000
vn 0.773010 -0.634393 0.000000
vn 0.471396 -0.881921 0.000000
vn -0.634394 -0.773010 0.000000
vn -0.773011 -0.634392 0.000000
vn -0.881921 -0.471396 0.000000
vn -0.956941 -0.290284 0.000000
vn -0.995185 0.098019 0.000000
vn -0.956940 0.290286 0.000000
vn -0.881921 0.471397 0.000000
vn -0.634393 0.773011 0.000000
vn -0.000001 0.000000 -1.000000
vn -0.000003 -0.000000 -1.000000
vn 0.000001 0.000000 -1.000000
usemtl None
s off
f 2/1/1 4/2/1 3/3/1
f 4/2/2 6/4/2 5/5/2
f 6/4/3 8/6/3 7/7/3
f 8/6/4 10/8/4 9/9/4
f 10/8/5 12/10/5 11/11/5
f 12/12/6 14/13/6 13/14/6
f 14/13/7 16/15/7 15/16/7
f 16/15/8 18/17/8 17/18/8
f 18/17/9 20/19/9 19/20/9
f 20/19/10 22/21/10 21/22/10
f 22/21/11 24/23/11 23/24/11
f 24/23/12 26/25/12 25/26/12
f 26/27/13 28/28/13 27/29/13
f 28/28/14 30/30/14 29/31/14
f 30/30/15 32/32/15 31/33/15
f 32/32/16 34/34/16 33/35/16
f 34/34/17 36/36/17 35/37/17
f 36/36/18 38/38/18 37/39/18
f 38/38/19 40/40/19 39/41/19
f 40/40/20 42/42/20 41/43/20
f 42/44/21 44/45/21 43/46/21
f 44/45/22 46/47/22 45/48/22
f 46/47/23 48/49/23 47/50/23
f 48/49/24 50/51/24 49/52/24
f 50/51/25 52/53/25 51/54/25
f 52/53/26 54/55/26 53/56/26
f 54/55/27 56/57/27 55/58/27
f 56/57/28 58/59/28 57/60/28
f 58/61/29 60/62/29 59/63/29
f 60/62/30 62/64/30 61/65/30
f 38/66/31 22/67/31 54/68/31
f 64/69/32 2/1/32 1/70/32
f 62/64/33 64/69/33 63/71/33
f 31/72/34 47/73/34 15/74/34
f 1/70/1 2/1/1 3/3/1
f 3/3/2 4/2/2 5/5/2
f 5/5/35 6/4/35 7/7/35
f 7/7/4 8/6/4 9/9/4
f 9/9/36 10/8/36 11/11/36
f 11/75/37 12/12/37 13/14/37
f 13/14/38 14/13/38 15/16/38
f 15/16/8 16/15/8 17/18/8
f 17/18/9 18/17/9 19/20/9
f 19/20/10 20/19/10 21/22/10
f 21/22/39 22/21/39 23/24/39
f 23/24/40 24/23/40 25/26/40
f 25/76/13 26/27/13 27/29/13
f 27/29/41 28/28/41 29/31/41
f 29/31/15 30/30/15 31/33/15
f 31/33/16 32/32/16 33/35/16
f 33/35/17 34/34/17 35/37/17
f 35/37/18 36/36/18 37/39/18
f 37/39/19 38/38/19 39/41/19
f 39/41/42 40/40/42 41/43/42
f 41/77/43 42/44/43 43/46/43
f 43/46/44 44/45/44 45/48/44
f 45/48/45 46/47/45 47/50/45
f 47/50/24 48/49/24 49/52/24
f 49/52/46 50/51/46 51/54/46
f 51/54/47 52/53/47 53/56/47
f 53/56/48 54/55/48 55/58/48
f 55/58/28 56/57/28 57/60/28
f 57/78/49 58/61/49 59/63/49
f 59/63/30 60/62/30 61/65/30
f 6/79/31 4/80/31 2/81/31
f 2/81/31 64/82/31 6/79/31
f 62/83/31 60/84/31 58/85/31
f 58/85/31 56/86/31 54/68/31
f 54/68/31 52/87/31 50/88/31
f 50/88/31 48/89/31 54/68/31
f 46/90/31 44/91/31 38/66/31
f 42/92/31 40/93/31 38/66/31
f 38/66/31 36/94/31 34/95/31
f 34/95/31 32/96/31 30/97/31
f 30/97/31 28/98/31 26/99/31
f 26/99/31 24/100/31 22/67/31
f 22/67/31 20/101/31 18/102/31
f 18/102/31 16/103/31 22/67/31
f 14/104/31 12/105/31 10/106/31
f 10/106/31 8/107/31 6/79/31
f 6/79/31 64/82/31 62/83/31
f 62/83/31 58/85/31 6/79/31
f 54/68/31 48/89/31 46/90/31
f 44/91/31 42/92/31 38/66/31
f 38/66/31 34/95/31 22/67/31
f 30/97/31 26/99/31 22/67/31
f 22/67/31 16/103/31 14/104/31
f 14/104/31 10/106/31 22/67/31
f 6/79/31 58/85/31 54/68/31
f 54/68/31 46/90/31 38/66/31
f 34/95/31 30/97/31 22/67/31
f 22/67/31 10/106/31 6/79/31
f 6/79/31 54/68/31 22/67/31
f 63/71/32 64/69/32 1/70/32
f 61/65/33 62/64/33 63/71/33
f 63/108/34 1/109/34 3/110/34
f 3/110/50 5/111/50 7/112/50
f 7/112/51 9/113/51 11/114/51
f 11/114/34 13/115/34 7/112/34
f 15/74/34 17/116/34 19/117/34
f 19/117/34 21/118/34 15/74/34
f 23/119/34 25/120/34 31/72/34
f 27/121/52 29/122/52 31/72/52
f 31/72/34 33/123/34 35/124/34
f 35/124/52 37/125/52 39/126/52
f 39/126/34 41/127/34 43/128/34
f 43/128/34 45/129/34 47/73/34
f 47/73/34 49/130/34 51/131/34
f 51/131/50 53/132/50 55/133/50
f 55/133/34 57/134/34 63/108/34
f 59/135/34 61/136/34 63/108/34
f 63/108/34 3/110/34 15/74/34
f 7/112/34 13/115/34 15/74/34
f 15/74/34 21/118/34 23/119/34
f 25/120/34 27/121/34 31/72/34
f 31/72/34 35/124/34 47/73/34
f 39/126/34 43/128/34 47/73/34
f 47/73/34 51/131/34 63/108/34
f 57/134/34 59/135/34 63/108/34
f 3/110/34 7/112/34 15/74/34
f 15/74/34 23/119/34 31/72/34
f 35/124/34 39/126/34 47/73/34
f 51/131/34 55/133/34 63/108/34
f 63/108/34 15/74/34 47/73/34
