# Blender v2.69 (sub 0) OBJ File: 'moneda.blend'
# www.blender.org
o Cylinder
v 0.000000 0.125000 -0.050000
v 0.000000 0.125000 0.050000
v 0.024386 0.122598 -0.050000
v 0.024386 0.122598 0.050000
v 0.047835 0.115485 -0.050000
v 0.047835 0.115485 0.050000
v 0.069446 0.103934 -0.050000
v 0.069446 0.103934 0.050000
v 0.088388 0.088388 -0.050000
v 0.088388 0.088388 0.050000
v 0.103934 0.069446 -0.050000
v 0.103934 0.069446 0.050000
v 0.115485 0.047835 -0.050000
v 0.115485 0.047835 0.050000
v 0.122598 0.024386 -0.050000
v 0.122598 0.024386 0.050000
v 0.125000 0.000000 -0.050000
v 0.125000 -0.000000 0.050000
v 0.122598 -0.024386 -0.050000
v 0.122598 -0.024386 0.050000
v 0.115485 -0.047835 -0.050000
v 0.115485 -0.047835 0.050000
v 0.103934 -0.069446 -0.050000
v 0.103934 -0.069446 0.050000
v 0.088388 -0.088388 -0.050000
v 0.088388 -0.088388 0.050000
v 0.069446 -0.103934 -0.050000
v 0.069446 -0.103934 0.050000
v 0.047835 -0.115485 -0.050000
v 0.047835 -0.115485 0.050000
v 0.024386 -0.122598 -0.050000
v 0.024386 -0.122598 0.050000
v -0.000000 -0.125000 -0.050000
v -0.000000 -0.125000 0.050000
v -0.024386 -0.122598 -0.050000
v -0.024386 -0.122598 0.050000
v -0.047835 -0.115485 -0.050000
v -0.047835 -0.115485 0.050000
v -0.069446 -0.103934 -0.050000
v -0.069446 -0.103934 0.050000
v -0.088388 -0.088388 -0.050000
v -0.088388 -0.088388 0.050000
v -0.103934 -0.069446 -0.050000
v -0.103934 -0.069446 0.050000
v -0.115485 -0.047835 -0.050000
v -0.115485 -0.047835 0.050000
v -0.122598 -0.024386 -0.050000
v -0.122598 -0.024386 0.050000
v -0.125000 0.000000 -0.050000
v -0.125000 0.000000 0.050000
v -0.122598 0.024386 -0.050000
v -0.122598 0.024386 0.050000
v -0.115485 0.047836 -0.050000
v -0.115485 0.047836 0.050000
v -0.103934 0.069446 -0.050000
v -0.103934 0.069446 0.050000
v -0.088388 0.088388 -0.050000
v -0.088388 0.088388 0.050000
v -0.069446 0.103934 -0.050000
v -0.069446 0.103934 0.050000
v -0.047835 0.115485 -0.050000
v -0.047835 0.115485 0.050000
v -0.024386 0.122598 -0.050000
v -0.024386 0.122598 0.050000
v 0.000000 0.125000 -0.050000
v 0.000000 0.125000 0.050000
v 0.024386 0.122598 -0.050000
v 0.024386 0.122598 0.050000
v 0.047835 0.115485 -0.050000
v 0.047835 0.115485 0.050000
v 0.069446 0.103934 -0.050000
v 0.069446 0.103934 0.050000
v 0.088388 0.088388 -0.050000
v 0.088388 0.088388 0.050000
v 0.103934 0.069446 -0.050000
v 0.103934 0.069446 0.050000
v 0.115485 0.047835 -0.050000
v 0.115485 0.047835 0.050000
v 0.122598 0.024386 -0.050000
v 0.122598 0.024386 0.050000
v 0.125000 0.000000 -0.050000
v 0.125000 -0.000000 0.050000
v 0.122598 -0.024386 -0.050000
v 0.122598 -0.024386 0.050000
v 0.115485 -0.047835 -0.050000
v 0.115485 -0.047835 0.050000
v 0.103934 -0.069446 -0.050000
v 0.103934 -0.069446 0.050000
v 0.088388 -0.088388 -0.050000
v 0.088388 -0.088388 0.050000
v 0.069446 -0.103934 -0.050000
v 0.069446 -0.103934 0.050000
v 0.047835 -0.115485 -0.050000
v 0.047835 -0.115485 0.050000
v 0.024386 -0.122598 -0.050000
v 0.024386 -0.122598 0.050000
v -0.000000 -0.125000 -0.050000
v -0.000000 -0.125000 0.050000
v -0.024386 -0.122598 -0.050000
v -0.024386 -0.122598 0.050000
v -0.047835 -0.115485 -0.050000
v -0.047835 -0.115485 0.050000
v -0.069446 -0.103934 -0.050000
v -0.069446 -0.103934 0.050000
v -0.088388 -0.088388 -0.050000
v -0.088388 -0.088388 0.050000
v -0.103934 -0.069446 -0.050000
v -0.103934 -0.069446 0.050000
v -0.115485 -0.047835 -0.050000
v -0.115485 -0.047835 0.050000
v -0.122598 -0.024386 -0.050000
v -0.122598 -0.024386 0.050000
v -0.125000 0.000000 -0.050000
v -0.125000 0.000000 0.050000
v -0.122598 0.024386 -0.050000
v -0.122598 0.024386 0.050000
v -0.115485 0.047836 -0.050000
v -0.115485 0.047836 0.050000
v -0.103934 0.069446 -0.050000
v -0.103934 0.069446 0.050000
v -0.088388 0.088389 -0.050000
v -0.088388 0.088388 0.050000
v -0.069446 0.103934 -0.050000
v -0.069446 0.103934 0.050000
v -0.047835 0.115485 -0.050000
v -0.047835 0.115485 0.050000
v -0.024386 0.122598 -0.050000
v -0.024386 0.122598 0.050000
vn -0.098017 -0.995185 -0.000001
vn -0.290285 -0.956940 -0.000001
vn -0.471396 -0.881921 -0.000001
vn -0.634393 -0.773010 -0.000000
vn -0.773010 -0.634393 -0.000000
vn -0.881921 -0.471396 -0.000000
vn -0.956940 -0.290285 -0.000000
vn -0.995185 -0.098017 -0.000000
vn -0.995185 0.098017 0.000000
vn -0.956940 0.290285 0.000000
vn -0.881921 0.471397 0.000000
vn -0.773010 0.634394 0.000000
vn -0.634393 0.773010 0.000000
vn -0.471396 0.881921 0.000001
vn -0.290284 0.956940 0.000001
vn -0.098017 0.995185 0.000001
vn 0.098018 0.995185 0.000001
vn 0.290285 0.956940 0.000001
vn 0.471397 0.881921 0.000001
vn 0.634394 0.773010 0.000000
vn 0.773011 0.634393 0.000000
vn 0.881921 0.471396 0.000000
vn 0.956941 0.290283 0.000000
vn 0.995185 0.098017 0.000000
vn 0.995185 -0.098018 -0.000000
vn 0.956940 -0.290286 -0.000000
vn 0.881921 -0.471398 -0.000000
vn 0.773010 -0.634394 -0.000000
vn 0.634392 -0.773011 -0.000000
vn 0.471395 -0.881922 -0.000001
vn 0.000000 0.000001 -1.000000
vn 0.098017 -0.995185 -0.000001
vn 0.290283 -0.956941 -0.000001
vn 0.000000 0.000000 1.000000
vn -0.634393 -0.773011 -0.000000
vn -0.881921 -0.471397 -0.000000
vn -0.881922 0.471396 0.000000
vn 0.995185 0.098016 0.000000
vn 0.000000 -0.000001 1.000000
vn -0.000002 0.000001 -1.000000
vn 0.881922 0.471396 0.000000
vn 0.956941 0.290284 0.000000
vn 0.000002 -0.000001 1.000000
vn 0.471397 0.881921 0.000000
vn 0.634393 0.773010 0.000000
vn -0.000001 0.000001 -1.000000
vn 0.000000 0.000000 -1.000000
vn 0.000001 0.000001 -1.000000
vn 0.000002 0.000001 -1.000000
vn -0.773011 0.634393 0.000000
vn -0.000001 -0.000001 1.000000
vn -0.000004 0.000001 -1.000000
vn -0.000002 -0.000001 1.000000
vn 0.000004 -0.000001 1.000000
vn -0.000001 0.000000 -1.000000
vn 0.098017 0.995185 0.000001
vn 0.471396 0.881921 0.000001
vn 0.634393 0.773010 0.000001
vn 0.773010 0.634393 0.000001
vn 0.956940 0.290285 0.000000
vn 0.995185 -0.098017 -0.000000
vn 0.956940 -0.290285 -0.000000
vn 0.881921 -0.471397 -0.000000
vn 0.773010 -0.634394 -0.000001
vn 0.634393 -0.773010 -0.000001
vn 0.471396 -0.881921 -0.000001
vn 0.290284 -0.956940 -0.000001
vn -0.098018 -0.995185 -0.000001
vn -0.471397 -0.881921 -0.000001
vn -0.634394 -0.773010 -0.000001
vn -0.773011 -0.634393 -0.000001
vn -0.881922 -0.471396 -0.000000
vn -0.956941 -0.290283 -0.000000
vn -0.995185 0.098018 0.000000
vn -0.956940 0.290286 0.000000
vn -0.881921 0.471398 0.000000
vn -0.773010 0.634394 0.000001
vn -0.634392 0.773011 0.000001
vn -0.471395 0.881922 0.000001
vn -0.290283 0.956941 0.000001
vn 0.634393 0.773011 0.000001
vn 0.881921 0.471397 0.000000
vn 0.881922 -0.471396 -0.000000
vn -0.995185 -0.098016 -0.000000
vn -0.956941 -0.290284 -0.000000
vn -0.634393 -0.773010 -0.000001
vn 0.000001 -0.000001 1.000000
vn 0.773011 -0.634393 -0.000001
vn 0.000001 -0.000000 1.000000
s off
f 1//1 4//1 2//1
f 3//2 6//2 4//2
f 5//3 8//3 6//3
f 7//4 10//4 8//4
f 9//5 12//5 10//5
f 11//6 14//6 12//6
f 13//7 16//7 14//7
f 15//8 18//8 16//8
f 17//9 20//9 18//9
f 19//10 21//10 20//10
f 21//11 24//11 22//11
f 23//12 25//12 24//12
f 25//13 28//13 26//13
f 27//14 30//14 28//14
f 29//15 31//15 30//15
f 31//16 33//16 32//16
f 33//17 36//17 34//17
f 35//18 38//18 36//18
f 37//19 39//19 38//19
f 39//20 41//20 40//20
f 41//21 43//21 42//21
f 43//22 46//22 44//22
f 45//23 48//23 46//23
f 47//24 49//24 48//24
f 49//25 52//25 50//25
f 51//26 54//26 52//26
f 53//27 55//27 54//27
f 55//28 57//28 56//28
f 57//29 59//29 58//29
f 59//30 61//30 60//30
f 6//31 58//31 4//31
f 63//32 2//32 64//32
f 61//33 64//33 62//33
f 1//34 63//34 3//34
f 3//1 4//1 1//1
f 5//2 6//2 3//2
f 7//3 8//3 5//3
f 9//35 10//35 7//35
f 11//5 12//5 9//5
f 13//36 14//36 11//36
f 15//7 16//7 13//7
f 17//8 18//8 15//8
f 19//9 20//9 17//9
f 30//15 31//15 32//15
f 23//37 24//37 21//37
f 48//38 49//38 50//38
f 27//13 28//13 25//13
f 29//14 30//14 27//14
f 27//39 63//39 29//39
f 32//31 36//31 6//31
f 35//17 36//17 33//17
f 37//18 38//18 35//18
f 51//39 47//39 53//39
f 42//21 43//21 44//21
f 26//40 22//40 24//40
f 45//41 46//41 43//41
f 47//42 48//42 45//42
f 17//43 21//43 19//43
f 51//25 52//25 49//25
f 53//26 54//26 51//26
f 54//40 50//40 52//40
f 58//29 59//29 60//29
f 38//44 39//44 40//44
f 20//10 21//10 22//10
f 62//40 58//40 60//40
f 37//39 31//39 41//39
f 4//31 58//31 64//31
f 64//31 58//31 62//31
f 6//31 54//31 58//31
f 57//39 53//39 41//39
f 6//31 50//31 54//31
f 60//30 61//30 62//30
f 50//31 6//31 48//31
f 48//31 6//31 46//31
f 46//31 6//31 44//31
f 6//31 40//31 44//31
f 40//45 41//45 42//45
f 40//31 36//31 38//31
f 6//31 36//31 40//31
f 56//28 57//28 58//28
f 28//46 30//46 32//46
f 32//31 22//31 28//31
f 4//47 64//47 2//47
f 28//48 22//48 26//48
f 20//31 22//31 32//31
f 10//49 12//49 14//49
f 10//31 14//31 16//31
f 18//31 20//31 32//31
f 16//31 18//31 32//31
f 10//31 16//31 32//31
f 8//49 10//49 6//49
f 24//50 25//50 26//50
f 1//32 2//32 63//32
f 63//33 64//33 61//33
f 3//39 63//39 5//39
f 5//39 63//39 7//39
f 7//39 63//39 9//39
f 9//39 63//39 11//39
f 11//39 63//39 13//39
f 63//39 21//39 13//39
f 32//16 33//16 34//16
f 13//51 21//51 15//51
f 15//39 21//39 17//39
f 21//39 63//39 23//39
f 23//39 63//39 25//39
f 49//39 47//39 51//39
f 25//39 63//39 27//39
f 58//52 54//52 56//52
f 35//34 33//34 31//34
f 29//39 41//39 31//39
f 6//31 10//31 32//31
f 41//53 39//53 37//53
f 35//39 31//39 37//39
f 61//39 29//39 63//39
f 47//43 45//43 43//43
f 41//39 29//39 61//39
f 61//39 57//39 41//39
f 53//39 47//39 43//39
f 59//43 57//43 61//43
f 54//27 55//27 56//27
f 55//54 53//54 57//54
f 36//47 32//47 34//47
f 43//39 41//39 53//39
f 44//55 40//55 42//55
f 65//56 66//56 68//56
f 67//18 68//18 70//18
f 69//57 70//57 72//57
f 71//58 72//58 74//58
f 73//59 74//59 76//59
f 75//22 76//22 78//22
f 77//60 78//60 80//60
f 79//24 80//24 82//24
f 81//61 82//61 84//61
f 83//62 84//62 85//62
f 85//63 86//63 88//63
f 87//64 88//64 89//64
f 89//65 90//65 92//65
f 91//66 92//66 94//66
f 93//67 94//67 95//67
f 95//32 96//32 97//32
f 97//68 98//68 100//68
f 99//2 100//2 102//2
f 101//69 102//69 103//69
f 103//70 104//70 105//70
f 105//71 106//71 107//71
f 107//72 108//72 110//72
f 109//73 110//73 112//73
f 111//8 112//8 113//8
f 113//74 114//74 116//74
f 115//75 116//75 118//75
f 117//76 118//76 119//76
f 119//77 120//77 121//77
f 121//78 122//78 123//78
f 123//79 124//79 125//79
f 70//39 68//39 122//39
f 127//16 128//16 66//16
f 125//80 126//80 128//80
f 65//47 67//47 127//47
f 67//56 65//56 68//56
f 69//18 67//18 70//18
f 71//57 69//57 72//57
f 73//81 71//81 74//81
f 75//59 73//59 76//59
f 77//82 75//82 78//82
f 79//60 77//60 80//60
f 81//24 79//24 82//24
f 83//61 81//61 84//61
f 94//67 96//67 95//67
f 87//83 85//83 88//83
f 112//84 114//84 113//84
f 91//65 89//65 92//65
f 93//66 91//66 94//66
f 91//31 93//31 127//31
f 96//39 70//39 100//39
f 99//68 97//68 100//68
f 101//2 99//2 102//2
f 115//46 117//46 111//46
f 106//71 108//71 107//71
f 90//53 88//53 86//53
f 109//72 107//72 110//72
f 111//85 109//85 112//85
f 81//31 83//31 85//31
f 115//74 113//74 116//74
f 117//75 115//75 118//75
f 118//39 116//39 114//39
f 122//78 124//78 123//78
f 102//69 104//69 103//69
f 84//62 86//62 85//62
f 126//43 124//43 122//43
f 101//31 105//31 95//31
f 68//39 128//39 122//39
f 128//39 126//39 122//39
f 70//39 122//39 118//39
f 121//31 105//31 117//31
f 70//39 118//39 114//39
f 124//79 126//79 125//79
f 114//39 112//39 70//39
f 112//39 110//39 70//39
f 110//39 108//39 70//39
f 70//39 108//39 104//39
f 104//86 106//86 105//86
f 104//39 102//39 100//39
f 70//39 104//39 100//39
f 120//77 122//77 121//77
f 92//87 96//87 94//87
f 96//51 92//51 86//51
f 68//34 66//34 128//34
f 92//87 90//87 86//87
f 84//39 96//39 86//39
f 74//39 78//39 76//39
f 74//51 80//51 78//51
f 82//39 96//39 84//39
f 80//39 96//39 82//39
f 74//39 96//39 80//39
f 72//53 70//53 74//53
f 88//88 90//88 89//88
f 65//16 127//16 66//16
f 127//80 125//80 128//80
f 67//31 69//31 127//31
f 69//31 71//31 127//31
f 71//31 73//31 127//31
f 73//31 75//31 127//31
f 75//31 77//31 127//31
f 127//31 77//31 85//31
f 96//32 98//32 97//32
f 77//31 79//31 85//31
f 79//31 81//31 85//31
f 85//31 87//31 127//31
f 87//31 89//31 127//31
f 113//31 115//31 111//31
f 89//31 91//31 127//31
f 122//39 120//39 118//39
f 99//47 95//47 97//47
f 93//31 95//31 105//31
f 70//39 96//39 74//39
f 105//49 101//49 103//49
f 99//31 101//31 95//31
f 125//31 127//31 93//31
f 111//40 107//40 109//40
f 105//31 125//31 93//31
f 125//31 105//31 121//31
f 117//48 107//48 111//48
f 123//40 125//40 121//40
f 118//76 120//76 119//76
f 119//31 121//31 117//31
f 100//34 98//34 96//34
f 107//46 117//46 105//46
f 108//89 106//89 104//89
