# Blender v2.76 (sub 0) OBJ File: 'lubetube.blend'
# www.blender.org
mtllib mundo.mtl
v 0.000000 2.250016 -48.000000
v 0.000000 2.249984 3.000002
v 0.438953 2.206783 -48.000000
v 0.438953 2.206751 3.000002
v 0.861038 2.078745 -48.000000
v 0.861038 2.078713 3.000002
v 1.250033 1.870823 -48.000000
v 1.250033 1.870790 3.000002
v 1.590990 1.591007 -48.000000
v 1.590990 1.590974 3.000002
v 1.870807 1.250049 -48.000000
v 1.870807 1.250017 3.000000
v 2.078729 0.861054 -48.000000
v 2.078729 0.861021 3.000000
v 2.206767 0.438970 -48.000000
v 2.206767 0.438937 3.000000
v 2.250000 0.000016 -48.000000
v 2.250000 -0.000016 3.000000
v 2.206767 -0.438937 -48.000000
v 2.206767 -0.438969 3.000000
v 2.078729 -0.861021 -48.000000
v 2.078729 -0.861054 3.000000
v 1.870807 -1.250017 -48.000000
v 1.870807 -1.250049 3.000000
v 1.590990 -1.590974 -48.000000
v 1.590990 -1.591007 2.999998
v 1.250033 -1.870790 -48.000000
v 1.250033 -1.870823 2.999998
v 0.861037 -2.078713 -48.000000
v 0.861037 -2.078745 2.999998
v 0.438953 -2.206751 -48.000000
v 0.438953 -2.206783 2.999998
v -0.000001 -2.249984 -48.000000
v -0.000001 -2.250016 2.999998
v -0.438954 -2.206750 -48.000000
v -0.438954 -2.206783 2.999998
v -0.861039 -2.078712 -48.000000
v -0.861039 -2.078745 2.999998
v -1.250034 -1.870790 -48.000000
v -1.250034 -1.870822 2.999998
v -1.590991 -1.590973 -48.000000
v -1.590991 -1.591006 2.999998
v -1.870808 -1.250015 -48.000000
v -1.870808 -1.250048 3.000000
v -2.078730 -0.861020 -48.000000
v -2.078730 -0.861052 3.000000
v -2.206767 -0.438935 -48.000000
v -2.206767 -0.438968 3.000000
v -2.250000 0.000018 -48.000000
v -2.250000 -0.000014 3.000000
v -2.206766 0.438972 -48.000000
v -2.206766 0.438939 3.000000
v -2.078728 0.861056 -48.000000
v -2.078728 0.861024 3.000000
v -1.870805 1.250052 -48.000000
v -1.870805 1.250019 3.000000
v -1.590988 1.591009 -48.000000
v -1.590988 1.590976 3.000002
v -1.250031 1.870825 -48.000000
v -1.250031 1.870792 3.000002
v -0.861035 2.078746 -48.000000
v -0.861035 2.078714 3.000002
v -0.438950 2.206784 -48.000000
v -0.438950 2.206751 3.000002
vt 0.499418 4.431746
vt 0.436898 4.432742
vt 0.425342 -3.435227
vt 0.374377 4.433743
vt 0.362821 -3.434229
vt 0.311857 4.434737
vt 0.300301 -3.433231
vt 0.249337 4.435737
vt 0.237780 -3.432234
vt 0.186816 4.436734
vt 0.175260 -3.431236
vt 0.124295 4.437732
vt 0.112739 -3.430238
vt 0.061775 4.438733
vt 0.050218 -3.429240
vt -0.000745 4.439730
vt -0.012303 -3.428242
vt 0.097961 0.980849
vt 0.097207 0.980849
vt 0.097207 0.973150
vt 0.096452 0.980849
vt 0.096452 0.973150
vt 0.095698 0.980849
vt 0.095698 0.973150
vt 0.094943 0.980849
vt 0.094943 0.973150
vt 0.094188 0.980849
vt 0.094188 0.973150
vt 0.093434 0.980849
vt 0.093434 0.973150
vt 0.092679 0.980849
vt 0.092679 0.973150
vt 0.091924 0.980849
vt 0.091924 0.973150
vt 0.091170 0.980849
vt 0.091170 0.973150
vt 0.090415 0.980849
vt 0.090415 0.973150
vt 0.089660 0.980849
vt 0.089660 0.973150
vt 0.088906 0.980849
vt 0.088906 0.973150
vt 0.088151 0.980849
vt 0.088151 0.973150
vt 0.087396 0.980849
vt 0.087396 0.973150
vt 0.086642 0.980849
vt 0.086642 0.973150
vt 0.085887 0.980849
vt 0.085887 0.973150
vt 0.999581 4.423774
vt 0.937060 4.424770
vt 0.925507 -3.443194
vt 0.874540 4.425765
vt 0.862986 -3.442200
vt 0.812019 4.426760
vt 0.800466 -3.441203
vt 0.749498 4.427756
vt 0.737945 -3.440207
vt 0.686978 4.428753
vt 0.624458 4.429750
vt 0.612903 -3.438216
vt 0.013501 0.976199
vt 0.017917 0.975764
vt 0.018352 0.980179
vt 0.550383 -3.437221
vt 0.561937 4.430747
vt 0.049408 0.972044
vt 0.042856 0.972689
vt 0.048763 0.965492
vt 0.487863 -3.436222
vt 0.097962 0.973150
vt 0.988027 -3.444190
vt 0.675424 -3.439211
vt 0.017917 0.980614
vt 0.016234 0.981311
vt 0.017405 0.980956
vt 0.016837 0.981191
vt 0.015619 0.981311
vt 0.015016 0.981191
vt 0.014448 0.980956
vt 0.013936 0.980614
vt 0.013501 0.980179
vt 0.012804 0.978497
vt 0.013160 0.979668
vt 0.012924 0.979100
vt 0.012804 0.977882
vt 0.012924 0.977279
vt 0.013160 0.976710
vt 0.013936 0.975764
vt 0.014448 0.975423
vt 0.015016 0.975187
vt 0.015619 0.975067
vt 0.016234 0.975067
vt 0.016837 0.975187
vt 0.017405 0.975423
vt 0.018352 0.976199
vt 0.019049 0.977882
vt 0.018693 0.976710
vt 0.018929 0.977279
vt 0.019049 0.978497
vt 0.018929 0.979100
vt 0.018693 0.979668
vt 0.042211 0.966137
vt 0.042856 0.965492
vt 0.043615 0.964985
vt 0.044458 0.964635
vt 0.045353 0.964458
vt 0.046266 0.964458
vt 0.047161 0.964635
vt 0.048004 0.964985
vt 0.049408 0.966137
vt 0.049915 0.966896
vt 0.050264 0.967739
vt 0.050442 0.968634
vt 0.050442 0.969547
vt 0.050264 0.970442
vt 0.049915 0.971285
vt 0.048763 0.972689
vt 0.048004 0.973196
vt 0.047161 0.973545
vt 0.046266 0.973723
vt 0.045353 0.973723
vt 0.044458 0.973545
vt 0.043615 0.973196
vt 0.042211 0.972044
vt 0.041704 0.971285
vt 0.041355 0.970442
vt 0.041177 0.969547
vt 0.041177 0.968634
vt 0.041355 0.967739
vt 0.041704 0.966896
vn 0.098000 0.995200 0.000000
vn 0.290300 0.956900 0.000000
vn 0.471400 0.881900 0.000000
vn 0.634400 0.773000 0.000000
vn 0.773000 0.634400 0.000000
vn 0.881900 0.471400 0.000000
vn 0.956900 0.290300 0.000000
vn 0.995200 0.098000 0.000000
vn 0.995200 -0.098000 -0.000000
vn 0.956900 -0.290300 -0.000000
vn 0.881900 -0.471400 -0.000000
vn 0.773000 -0.634400 -0.000000
vn 0.634400 -0.773000 -0.000000
vn 0.471400 -0.881900 -0.000000
vn 0.290300 -0.956900 -0.000000
vn 0.098000 -0.995200 -0.000000
vn -0.098000 -0.995200 -0.000000
vn -0.290300 -0.956900 -0.000000
vn -0.471400 -0.881900 -0.000000
vn -0.634400 -0.773000 -0.000000
vn -0.773000 -0.634400 -0.000000
vn -0.881900 -0.471400 -0.000000
vn -0.956900 -0.290300 -0.000000
vn -0.995200 -0.098000 -0.000000
vn -0.995200 0.098000 0.000000
vn -0.956900 0.290300 0.000000
vn -0.881900 0.471400 0.000000
vn -0.773000 0.634400 0.000000
vn -0.634400 0.773000 0.000000
vn -0.471400 0.881900 0.000000
vn -0.000000 -0.000000 1.000000
vn -0.098000 0.995200 0.000000
vn -0.290300 0.956900 0.000000
vn 0.000000 0.000000 -1.000000
vn -0.000100 0.000000 -1.000000
vn 0.000100 0.000000 -1.000000
usemtl None
s off
f 2/1/1 4/2/1 3/3/1
f 4/2/2 6/4/2 5/5/2
f 6/4/3 8/6/3 7/7/3
f 8/6/4 10/8/4 9/9/4
f 10/8/5 12/10/5 11/11/5
f 12/10/6 14/12/6 13/13/6
f 14/12/7 16/14/7 15/15/7
f 16/14/8 18/16/8 17/17/8
f 18/18/9 20/19/9 19/20/9
f 20/19/10 22/21/10 21/22/10
f 22/21/11 24/23/11 23/24/11
f 24/23/12 26/25/12 25/26/12
f 26/25/13 28/27/13 27/28/13
f 28/27/14 30/29/14 29/30/14
f 30/29/15 32/31/15 31/32/15
f 32/31/16 34/33/16 33/34/16
f 34/33/17 36/35/17 35/36/17
f 36/35/18 38/37/18 37/38/18
f 38/37/19 40/39/19 39/40/19
f 40/39/20 42/41/20 41/42/20
f 42/41/21 44/43/21 43/44/21
f 44/43/22 46/45/22 45/46/22
f 46/45/23 48/47/23 47/48/23
f 48/47/24 50/49/24 49/50/24
f 50/51/25 52/52/25 51/53/25
f 52/52/26 54/54/26 53/55/26
f 54/54/27 56/56/27 55/57/27
f 55/57/28 56/56/28 58/58/28
f 57/59/29 58/58/29 60/60/29
f 60/60/30 62/61/30 61/62/30
f 38/63/31 22/64/31 6/65/31
f 63/66/32 64/67/32 2/1/32
f 62/61/33 64/67/33 63/66/33
f 31/68/34 47/69/34 15/70/34
f 1/71/1 2/1/1 3/3/1
f 3/3/2 4/2/2 5/5/2
f 5/5/3 6/4/3 7/7/3
f 7/7/4 8/6/4 9/9/4
f 9/9/5 10/8/5 11/11/5
f 11/11/6 12/10/6 13/13/6
f 13/13/7 14/12/7 15/15/7
f 15/15/8 16/14/8 17/17/8
f 17/72/9 18/18/9 19/20/9
f 19/20/10 20/19/10 21/22/10
f 21/22/11 22/21/11 23/24/11
f 23/24/12 24/23/12 25/26/12
f 25/26/13 26/25/13 27/28/13
f 27/28/14 28/27/14 29/30/14
f 29/30/15 30/29/15 31/32/15
f 31/32/16 32/31/16 33/34/16
f 33/34/17 34/33/17 35/36/17
f 35/36/18 36/35/18 37/38/18
f 37/38/19 38/37/19 39/40/19
f 39/40/20 40/39/20 41/42/20
f 41/42/21 42/41/21 43/44/21
f 43/44/22 44/43/22 45/46/22
f 45/46/23 46/45/23 47/48/23
f 47/48/24 48/47/24 49/50/24
f 49/73/25 50/51/25 51/53/25
f 51/53/26 52/52/26 53/55/26
f 53/55/27 54/54/27 55/57/27
f 57/59/28 55/57/28 58/58/28
f 59/74/29 57/59/29 60/60/29
f 59/74/30 60/60/30 61/62/30
f 6/65/31 4/75/31 62/76/31
f 2/77/31 64/78/31 62/76/31
f 62/76/31 60/79/31 58/80/31
f 58/80/31 56/81/31 54/82/31
f 54/82/31 52/83/31 46/84/31
f 50/85/31 48/86/31 46/84/31
f 46/84/31 44/87/31 38/63/31
f 42/88/31 40/89/31 38/63/31
f 38/63/31 36/90/31 34/91/31
f 34/91/31 32/92/31 38/63/31
f 30/93/31 28/94/31 26/95/31
f 26/95/31 24/96/31 22/64/31
f 22/64/31 20/97/31 14/98/31
f 18/99/31 16/100/31 14/98/31
f 14/98/31 12/101/31 10/102/31
f 10/102/31 8/103/31 6/65/31
f 4/75/31 2/77/31 62/76/31
f 62/76/31 58/80/31 6/65/31
f 52/83/31 50/85/31 46/84/31
f 44/87/31 42/88/31 38/63/31
f 38/63/31 32/92/31 30/93/31
f 30/93/31 26/95/31 22/64/31
f 20/97/31 18/99/31 14/98/31
f 14/98/31 10/102/31 6/65/31
f 6/65/31 58/80/31 54/82/31
f 54/82/31 46/84/31 38/63/31
f 38/63/31 30/93/31 22/64/31
f 22/64/31 14/98/31 6/65/31
f 6/65/31 54/82/31 38/63/31
f 1/71/32 63/66/32 2/1/32
f 61/62/33 62/61/33 63/66/33
f 63/104/34 1/105/34 3/106/34
f 3/106/34 5/107/34 63/104/34
f 7/108/34 9/109/34 15/70/34
f 11/110/34 13/111/34 15/70/34
f 15/70/35 17/112/35 19/113/35
f 19/113/35 21/114/35 23/115/35
f 23/115/34 25/116/34 31/68/34
f 27/117/34 29/118/34 31/68/34
f 31/68/34 33/119/34 35/120/34
f 35/120/34 37/121/34 31/68/34
f 39/122/34 41/123/34 43/124/34
f 43/124/34 45/125/34 47/69/34
f 47/69/36 49/126/36 51/127/36
f 51/127/36 53/128/36 55/129/36
f 55/129/34 57/130/34 59/131/34
f 59/131/34 61/132/34 55/129/34
f 63/104/34 5/107/34 7/108/34
f 9/109/34 11/110/34 15/70/34
f 15/70/34 19/113/34 31/68/34
f 25/116/34 27/117/34 31/68/34
f 31/68/34 37/121/34 39/122/34
f 39/122/34 43/124/34 31/68/34
f 47/69/34 51/127/34 63/104/34
f 55/129/34 61/132/34 63/104/34
f 63/104/34 7/108/34 15/70/34
f 19/113/34 23/115/34 31/68/34
f 31/68/34 43/124/34 47/69/34
f 51/127/34 55/129/34 63/104/34
f 63/104/34 15/70/34 47/69/34
