# Blender v2.69 (sub 0) OBJ File: 'obstaculo.blend'
# www.blender.org
mtllib obstaculo.mtl
v 0.075000 0.000000 -0.000000
v -0.075000 0.000000 -0.150000
v 0.075000 0.000000 -0.150000
v -0.075000 0.150000 -0.150000
v 0.075000 0.150000 0.000000
v 0.075000 0.150000 -0.150000
v -0.075000 0.000000 -0.000000
v -0.075000 0.150000 -0.000000
vt 0.751571 0.499117
vt 0.502759 0.247935
vt 0.752756 0.249120
vt 0.252762 0.246751
vt 0.001680 0.495563
vt 0.002865 0.245566
vt 1.002653 0.250304
vt 0.750387 0.749015
vt 0.501574 0.497932
vt 0.503944 -0.002062
vt 0.753941 -0.000877
vt 0.251577 0.496748
vt 1.001468 0.500302
vt 0.500390 0.747830
vn 0.000000 -1.000000 0.000000
vn 0.000000 1.000000 0.000000
vn 1.000000 0.000000 0.000000
vn -0.000000 -0.000000 1.000000
vn -1.000000 0.000000 0.000000
vn 0.000000 0.000000 -1.000000
vn 0.000001 0.000001 -1.000000
vn 1.000000 0.000001 0.000000
usemtl Material.001
s 1
f 1/1/1 2/2/1 3/3/1
f 4/4/2 5/5/2 6/6/2
f 6/7/3 1/1/3 3/3/3
f 5/8/4 7/9/4 1/1/4
f 7/9/5 4/4/5 2/2/5
f 3/3/6 4/10/6 6/11/7
f 1/1/1 7/9/1 2/2/1
f 4/4/2 8/12/2 5/5/2
f 6/7/3 5/13/8 1/1/3
f 5/8/4 8/14/4 7/9/4
f 7/9/5 8/12/5 4/4/5
f 3/3/6 2/2/6 4/10/6
