# Blender v2.69 (sub 0) OBJ File: 'personaje1.blend'
# www.blender.org
v -0.069375 0.000000 -0.005625
v -0.069375 0.005625 0.000000
v -0.075000 0.005625 -0.005625
v -0.075000 0.005625 -0.144375
v -0.069375 0.005625 -0.150000
v -0.069375 0.000000 -0.144375
v 0.069375 0.005625 -0.150000
v 0.075000 0.005625 -0.144375
v 0.069375 0.000000 -0.144375
v 0.075000 0.005625 -0.005625
v 0.069375 0.005625 0.000000
v 0.069375 0.000000 -0.005625
v -0.075000 0.144375 -0.005625
v -0.069375 0.144375 0.000000
v -0.069375 0.150000 -0.005625
v -0.075000 0.144375 -0.144375
v -0.069375 0.150000 -0.144375
v -0.069375 0.144375 -0.150000
v 0.069375 0.144375 -0.150000
v 0.069375 0.150000 -0.144375
v 0.075000 0.144375 -0.144375
v 0.075000 0.144375 -0.005625
v 0.069375 0.150000 -0.005625
v 0.069375 0.144375 0.000000
v -0.069375 0.000000 -0.005625
v -0.069375 0.005625 0.000000
v -0.075000 0.005625 -0.005625
v -0.075000 0.005625 -0.144375
v -0.069375 0.005625 -0.150000
v -0.069375 0.000000 -0.144375
v 0.069375 0.005625 -0.150000
v 0.075000 0.005625 -0.144375
v 0.069375 0.000000 -0.144375
v 0.075000 0.005625 -0.005625
v 0.069375 0.005625 0.000000
v 0.069375 0.000000 -0.005625
v -0.075000 0.144375 -0.005625
v -0.069375 0.144375 0.000000
v -0.069375 0.150000 -0.005625
v -0.075000 0.144375 -0.144375
v -0.069375 0.150000 -0.144375
v -0.069375 0.144375 -0.150000
v 0.069375 0.144375 -0.150000
v 0.069375 0.150000 -0.144375
v 0.075000 0.144375 -0.144375
v 0.075000 0.144375 -0.005625
v 0.069375 0.150000 -0.005625
v 0.069375 0.144375 0.000000
vn 0.577350 0.577350 -0.577350
vn 0.577350 0.577350 0.577350
vn -0.577350 0.577350 0.577350
vn -0.577350 0.577350 -0.577350
vn 0.577351 -0.577350 -0.577350
vn 0.577352 -0.577350 0.577350
vn -0.577352 -0.577350 0.577350
vn -0.577351 -0.577350 -0.577350
vn 0.707107 0.000000 -0.707107
vn 0.707107 -0.707106 0.000000
vn 0.707108 0.000000 0.707106
vn 0.707107 0.707107 0.000000
vn 0.000000 -0.707108 0.707105
vn -0.707106 0.000000 0.707108
vn 0.000000 0.707107 0.707106
vn -0.707107 -0.707106 0.000000
vn -0.707107 0.000000 -0.707107
vn -0.707107 0.707107 0.000000
vn 0.000000 -0.707108 -0.707106
vn 0.000000 0.707107 -0.707107
vn -0.577350 -0.577350 0.577350
vn -0.577350 -0.577350 -0.577350
vn 0.577350 -0.577350 -0.577350
vn 0.577350 -0.577350 0.577350
vn -0.577351 0.577350 0.577350
vn -0.577352 0.577350 -0.577350
vn 0.577352 0.577350 -0.577350
vn 0.577351 0.577350 0.577350
vn -0.707107 0.000000 0.707107
vn -0.707107 0.707106 0.000000
vn -0.707108 0.000000 -0.707106
vn -0.707107 -0.707107 0.000000
vn 0.000000 0.707108 -0.707105
vn 0.707106 0.000000 -0.707108
vn 0.000000 -0.707107 -0.707106
vn 0.707107 0.707106 0.000000
vn 0.707107 0.000000 0.707107
vn 0.707107 -0.707107 0.000000
vn 0.000000 0.707108 0.707106
vn 0.000000 -0.707107 0.707107
vn 0.707106 0.000000 0.707108
vn -0.707107 0.000000 0.707106
vn 0.000000 -0.707106 -0.707108
vn -0.707106 0.000000 -0.707108
vn 0.707107 0.000000 -0.707106
vn 0.000000 0.707106 0.707108
s off
f 1//1 3//1 2//1
f 4//2 6//2 5//2
f 7//3 9//3 8//3
f 10//4 12//4 11//4
f 13//5 15//5 14//5
f 16//6 18//6 17//6
f 19//7 21//7 20//7
f 22//8 24//8 23//8
f 2//9 3//9 14//9
f 15//10 13//10 17//10
f 18//11 16//11 5//11
f 6//12 4//12 1//12
f 17//13 18//13 20//13
f 21//14 19//14 8//14
f 9//15 7//15 6//15
f 20//16 21//16 23//16
f 24//17 22//17 11//17
f 12//18 10//18 9//18
f 23//19 24//19 15//19
f 1//20 2//20 12//20
f 25//21 26//21 27//21
f 28//22 29//22 30//22
f 31//23 32//23 33//23
f 34//24 35//24 36//24
f 37//25 38//25 39//25
f 40//26 41//26 42//26
f 43//27 44//27 45//27
f 46//28 47//28 48//28
f 26//29 38//29 27//29
f 39//30 41//30 37//30
f 42//31 29//31 40//31
f 30//32 25//32 28//32
f 41//33 44//33 42//33
f 45//34 32//34 43//34
f 33//35 30//35 31//35
f 44//36 47//36 45//36
f 48//37 35//37 46//37
f 36//38 33//38 34//38
f 47//39 39//39 48//39
f 25//40 36//40 26//40
f 3//9 13//9 14//9
f 13//10 16//10 17//10
f 16//41 4//41 5//41
f 4//12 3//12 1//12
f 18//40 19//40 20//40
f 19//42 7//42 8//42
f 7//15 5//15 6//15
f 21//16 22//16 23//16
f 22//17 10//17 11//17
f 10//18 8//18 9//18
f 24//43 14//43 15//43
f 2//20 11//20 12//20
f 38//29 37//29 27//29
f 41//30 40//30 37//30
f 29//44 28//44 40//44
f 25//32 27//32 28//32
f 44//20 43//20 42//20
f 32//45 31//45 43//45
f 30//35 29//35 31//35
f 47//36 46//36 45//36
f 35//37 34//37 46//37
f 33//38 32//38 34//38
f 39//46 38//46 48//46
f 36//40 35//40 26//40
